<svg width="239" height="193" viewBox="0 0 239 193" fill="none" xmlns="http://www.w3.org/2000/svg">
<path d="M145.057 4.32444L127.263 30.6964C126.625 31.5471 126.766 32.6814 127.617 33.3194C128.397 33.8866 129.389 33.8157 130.098 33.1776L147.609 18.0776C147.892 17.794 148.318 17.8649 148.601 18.1485C148.743 18.2902 148.814 18.432 148.814 18.6447V66.0717C148.814 66.4971 148.46 66.7806 148.105 66.7806C147.892 66.7806 147.68 66.7098 147.609 66.568L94.794 3.33194C93.0926 1.27606 90.5405 0.0708927 87.9174 0.0708927H86.0742C81.1118 0.0708927 77 4.11176 77 9.14512V75.9258C77 80.8882 81.0409 85 86.0742 85C89.1935 85 92.171 83.3695 93.8015 80.6756L111.595 54.3036C112.234 53.4529 112.092 52.3186 111.241 51.6806C110.461 51.1134 109.469 51.1843 108.76 51.8224L91.2494 66.9224C90.9658 67.206 90.5404 67.1351 90.2569 66.8515C90.1151 66.7098 90.0442 66.568 90.0442 66.3553V18.9283C90.0442 18.5029 90.3987 18.2193 90.7531 18.2193C90.9658 18.2193 91.1785 18.2902 91.2494 18.432L144.064 81.6681C145.766 83.7239 148.318 84.8582 151.012 84.8582H152.926C157.888 84.8582 162 80.8174 162 75.784V9.07423C162 4.11176 157.959 0 152.926 0H152.855C149.665 0 146.758 1.63053 145.057 4.32444Z" fill="white"/>
<path d="M49.8893 133.83V191.854C49.8893 192.269 49.5572 192.685 49.0592 192.685H42.9994C40.177 192.685 37.6037 191.273 36.0265 188.866L8.63309 146.531L9.5462 167.698V191.854C9.5462 192.269 9.21416 192.685 8.71609 192.685H0.830104C0.415052 192.685 0 192.352 0 191.854V133.83C0 133.415 0.332042 133 0.830104 133H6.80686C9.62921 133 12.2025 134.411 13.7797 136.818L41.1732 179.071L40.3431 157.986V133.83C40.3431 133.332 40.6751 133 41.1732 133H49.1422C49.5572 133.083 49.8893 133.415 49.8893 133.83Z" fill="white"/>
<path d="M131.406 192.685H122.939C122.44 192.685 122.108 192.269 122.108 191.854C122.108 191.771 122.108 191.688 122.191 191.605L144.521 133.83C144.687 133.332 145.185 133 145.766 133H156.309C156.807 133 157.305 133.332 157.471 133.83L179.801 191.605C179.967 192.02 179.718 192.518 179.303 192.685C179.22 192.685 179.137 192.768 179.054 192.768H170.586C170.254 192.768 169.922 192.518 169.839 192.269L151.826 144.787C151.66 144.372 151.162 144.123 150.747 144.289C150.498 144.372 150.332 144.538 150.249 144.787L132.236 192.269C132.07 192.435 131.738 192.685 131.406 192.685Z" fill="white"/>
<path d="M238.406 191.356L221.638 169.94C231.101 168.113 236.663 161.805 236.663 151.926C236.663 140.637 229.358 133 216.408 133H192.999C192.335 133 191.754 133.581 191.754 134.245C191.754 138.645 195.324 142.214 199.723 142.214H215.412C223.215 142.214 227.034 146.199 227.034 152.009C227.034 157.82 223.381 161.971 215.412 161.971H192.999C192.335 161.971 191.754 162.552 191.754 163.216V191.937C191.754 192.435 192.086 192.768 192.584 192.768H200.553C200.968 192.768 201.383 192.435 201.383 191.937V170.438H210.597L225.124 189.447C226.701 191.522 229.192 192.685 231.765 192.685H237.825C238.323 192.685 238.655 192.269 238.572 191.771C238.572 191.605 238.489 191.439 238.406 191.356Z" fill="white"/>
<path d="M106.17 133H69.1477C68.5666 133 68.0685 133.498 68.0685 134.079C68.0685 138.562 71.721 142.214 76.2036 142.214H106.253C106.668 142.214 107.083 141.882 107.083 141.384V133.83C107 133.415 106.668 133 106.17 133ZM106.17 183.47H78.5279C78.1128 183.47 77.6978 183.138 77.6978 182.64V167.698C77.6978 167.2 78.0298 166.868 78.5279 166.868H104.095C104.593 166.868 104.925 166.536 104.925 166.038V158.401C104.925 157.903 104.593 157.571 104.095 157.571H69.3137C68.6496 157.571 68.0685 158.152 68.0685 158.816V191.356C68.0685 192.02 68.6496 192.601 69.3137 192.601H106.17C106.668 192.601 107 192.269 107 191.771V184.217C107 183.802 106.668 183.47 106.17 183.47Z" fill="white"/>
</svg>
