<svg width="307" height="211" viewBox="0 0 307 211" fill="none" xmlns="http://www.w3.org/2000/svg">
<path d="M175.553 25.9998C174 24.9287 171.945 24.9287 170.209 25.9998L157.969 34.2627L149.656 39.6692L137.415 47.932C135.862 49.0031 133.807 49.0031 132.071 47.932L122.343 41.4544C120.79 40.3833 119.694 38.3941 119.694 36.2519V23.4496C119.694 21.3074 120.653 19.3182 122.343 18.2471L131.934 11.9734C133.487 10.9023 135.543 10.9023 137.278 11.9734L146.87 18.2471C148.423 19.3182 149.519 21.3074 149.519 23.4496V31.7124L157.832 26.1529V17.89C157.832 15.7478 156.873 13.7586 155.183 12.6875L137.461 0.80333C135.908 -0.267777 133.853 -0.267777 132.117 0.80333L114.03 12.6875C112.294 13.7586 111.381 15.7478 111.381 17.89V41.8114C111.381 43.9536 112.34 45.9428 114.03 47.0139L132.071 58.8981C133.624 59.9692 135.68 59.9692 137.415 58.8981L149.656 50.7883L157.969 45.2288L170.209 37.119C171.762 36.0479 173.818 36.0479 175.553 37.119L185.145 43.3926C186.698 44.4637 187.794 46.4529 187.794 48.5951V61.3464C187.794 63.4886 186.835 65.4778 185.145 66.5489L175.553 73.0266C174 74.0977 171.945 74.0977 170.209 73.0266L160.618 66.7529C159.065 65.6818 157.969 63.6926 157.969 61.5504V53.2876L149.656 58.8471V67.11C149.656 69.2522 150.615 71.2414 152.305 72.3125L170.346 84.1967C171.899 85.2678 173.955 85.2678 175.69 84.1967L193.732 72.3125C195.285 71.2414 196.381 69.2522 196.381 67.11V43.1886C196.381 41.0463 195.422 39.0572 193.732 37.986L175.553 25.9998Z" fill="#7950DD"/>
<path d="M11.8716 210.767V189.291C14.1392 192.226 18.4077 193.826 23.2097 193.826C35.6149 193.826 44.0184 184.889 44.0184 171.417C44.0184 157.945 36.2818 149.008 24.2768 149.008C18.6745 149.008 14.406 151.142 11.8716 154.477V149.675H0V210.633H11.8716V210.767ZM21.7424 183.555C15.3397 183.555 11.0713 178.753 11.0713 171.55C11.0713 164.214 15.2063 159.412 21.7424 159.412C28.0117 159.412 32.2801 164.214 32.2801 171.55C32.2801 178.753 28.0117 183.555 21.7424 183.555Z" fill="white"/>
<path d="M70.9631 193.96C84.1686 193.96 93.7726 184.489 93.7726 171.55C93.7726 158.611 84.302 149.141 70.9631 149.141C57.7576 149.141 48.1536 158.611 48.1536 171.55C48.1536 184.489 57.7576 193.96 70.9631 193.96ZM70.9631 183.555C64.5604 183.555 60.1586 178.62 60.1586 171.55C60.1586 164.347 64.5604 159.412 70.9631 159.412C77.3658 159.412 81.7676 164.347 81.7676 171.55C81.7676 178.62 77.4991 183.555 70.9631 183.555Z" fill="white"/>
<path d="M112.847 193.293V131H100.976V193.293H112.847Z" fill="white"/>
<path d="M148.595 149.808L139.658 177.82L130.587 149.808H118.449L134.056 192.893L127.786 210.767H139.124L145.26 193.026L160.867 149.808H148.595Z" fill="white"/>
<path d="M194.215 154.076C191.814 151.008 187.545 149.141 182.343 149.141C169.804 149.141 162.201 158.078 162.201 171.55C162.201 185.023 169.804 193.96 182.61 193.96C187.678 193.96 192.214 192.092 194.481 188.891V194.627C194.481 198.628 191.814 201.563 188.212 201.563H168.337V210.9H190.079C199.817 210.9 206.353 204.897 206.353 195.96V149.941H194.348V154.076H194.215ZM184.344 183.555C178.074 183.555 173.806 178.753 173.806 171.55C173.806 164.347 177.941 159.412 184.344 159.412C190.746 159.412 195.015 164.214 195.015 171.55C195.015 178.887 190.746 183.555 184.344 183.555Z" fill="white"/>
<path d="M236.098 193.96C249.304 193.96 258.908 184.489 258.908 171.55C258.908 158.611 249.437 149.141 236.098 149.141C222.893 149.141 213.289 158.611 213.289 171.55C213.289 184.489 222.893 193.96 236.098 193.96ZM236.098 183.555C229.696 183.555 225.294 178.62 225.294 171.55C225.294 164.347 229.696 159.412 236.098 159.412C242.501 159.412 246.903 164.347 246.903 171.55C246.903 178.62 242.634 183.555 236.098 183.555Z" fill="white"/>
<path d="M277.449 193.293V169.549C277.449 163.947 281.184 159.945 286.386 159.945C291.322 159.945 294.656 163.68 294.656 169.016V193.293H306.661V166.215C306.661 156.21 300.392 149.141 290.521 149.141C284.652 149.141 279.85 151.675 277.449 155.81V149.808H265.444V193.293H277.449Z" fill="white"/>
</svg>
